<?xml version="1.0" standalone="no"?>
<!DOCTYPE svg PUBLIC "-//W3C//DTD SVG 20010904//EN"
 "http://www.w3.org/TR/2001/REC-SVG-20010904/DTD/svg10.dtd">
<svg version="1.0" xmlns="http://www.w3.org/2000/svg"
 width="578.000000pt" height="578.000000pt" viewBox="0 0 578.000000 578.000000"
 preserveAspectRatio="xMidYMid meet">
<metadata>
Created by potrace 1.14, written by Peter Selinger 2001-2017
</metadata>
<g transform="translate(0.000000,578.000000) scale(0.100000,-0.100000)"
fill="#000000" stroke="none">
<path d="M2875 5764 c-41 -9 -122 -40 -195 -76 -175 -84 -194 -90 -242 -77
-35 9 -43 17 -61 60 -12 27 -24 49 -27 49 -13 0 -38 -58 -44 -102 l-7 -48 -89
0 c-88 0 -213 -22 -237 -42 -7 -6 -13 -18 -13 -28 0 -20 -19 -30 -54 -30 -27
0 -86 -84 -113 -162 -15 -42 -21 -47 -56 -52 -50 -8 -201 -69 -249 -101 -21
-14 -40 -36 -44 -49 -3 -13 -16 -28 -28 -34 -13 -6 -27 -23 -30 -39 -4 -15
-14 -35 -21 -43 -22 -25 -44 -118 -55 -235 -14 -140 -25 -190 -53 -240 -30
-54 -79 -85 -133 -85 -24 0 -44 -4 -44 -8 0 -22 63 -103 92 -118 30 -16 31
-18 14 -28 -75 -44 -138 -101 -165 -148 -65 -113 -64 -223 5 -368 l37 -80 -33
-106 c-27 -87 -32 -115 -28 -167 6 -74 20 -103 87 -187 49 -61 49 -62 37 -98
-51 -144 -41 -453 20 -640 26 -78 128 -273 184 -350 32 -44 98 -83 175 -102
l41 -10 12 -153 c18 -231 52 -332 167 -508 79 -122 124 -179 226 -291 78 -86
277 -268 416 -382 40 -33 71 -61 69 -63 -2 -2 -25 5 -52 15 l-48 19 -75 -35
c-42 -19 -110 -40 -151 -47 -121 -22 -555 -84 -690 -99 -69 -8 -138 -20 -153
-27 l-28 -13 43 -26 c104 -65 457 -205 653 -259 369 -103 676 -138 1105 -127
261 6 435 24 638 65 289 60 754 226 917 329 39 25 39 25 15 34 -14 5 -92 18
-175 28 -82 10 -179 23 -215 29 -36 6 -164 24 -284 41 -193 27 -232 35 -319
70 -94 38 -100 39 -128 25 -16 -9 -29 -14 -29 -11 0 2 53 32 118 66 221 117
385 234 546 389 149 145 207 243 281 474 l38 117 66 0 c96 0 148 28 245 131
178 189 224 260 286 446 63 191 84 348 59 463 -9 40 -8 58 5 92 8 24 22 70 31
102 14 52 26 69 94 135 104 104 126 149 125 266 -1 81 -5 99 -38 180 -65 155
-64 144 -21 214 41 67 65 142 65 207 0 101 -44 228 -108 312 l-32 43 32 13
c43 18 88 54 88 70 0 9 -18 15 -51 18 -100 10 -130 55 -187 279 -44 173 -77
249 -134 314 -42 48 -121 91 -183 101 l-40 6 0 91 c0 75 -4 97 -20 122 l-20
29 -3 -73 -3 -74 -40 81 c-94 188 -279 323 -524 383 -101 24 -364 26 -500 4
-162 -26 -179 -24 -323 50 -178 92 -284 111 -437 79z m1530 -414 c10 -11 16
-20 13 -20 -3 0 -13 9 -23 20 -10 11 -16 20 -13 20 3 0 13 -9 23 -20z m499
-526 c5 -14 4 -15 -9 -4 -17 14 -19 20 -6 20 5 0 12 -7 15 -16z m142 -556 l19
-23 -25 20 c-14 11 -27 21 -29 22 -2 2 0 3 6 3 5 0 18 -10 29 -22z m-2413
-113 c-3 -9 -8 -14 -10 -11 -3 3 -2 9 2 15 9 16 15 13 8 -4z m1048 -209 c24
-70 84 -159 134 -199 20 -16 61 -40 93 -55 51 -24 69 -27 166 -27 l109 -1 44
-38 c58 -51 103 -129 103 -181 0 -22 -9 -60 -20 -84 l-20 -44 -29 39 c-16 22
-47 50 -69 62 -99 55 -309 82 -491 63 -145 -15 -180 -27 -199 -68 l-16 -34
-13 23 c-11 20 -12 15 -7 -42 7 -72 25 -110 53 -110 10 0 63 9 117 20 55 10
141 24 193 30 191 23 338 -22 456 -139 33 -33 63 -60 67 -61 10 0 -2 70 -17
102 l-13 26 80 0 79 0 -6 -41 c-3 -23 -7 -68 -8 -99 -1 -32 -4 -58 -7 -58 -3
0 -26 7 -53 15 -192 58 -783 118 -945 95 -83 -11 -168 -46 -205 -82 -59 -59
-89 -78 -124 -78 -50 0 -83 24 -127 92 -77 117 -168 159 -459 208 -207 36
-456 60 -614 60 l-151 0 5 78 c6 90 17 134 41 155 9 9 69 30 132 47 178 48
274 103 332 188 l15 22 49 -22 c40 -19 65 -23 134 -22 104 2 181 27 257 85 30
22 56 39 58 37 1 -1 12 -22 23 -44 80 -158 335 -196 442 -66 45 54 40 76 -10
47 -14 -8 -44 -14 -67 -15 -33 0 -46 5 -62 26 -30 38 -28 94 5 133 31 37 83
53 242 76 107 15 184 37 242 70 l25 14 8 -72 c5 -39 17 -98 28 -131z m843
-292 c3 -8 2 -12 -4 -9 -6 3 -10 10 -10 16 0 14 7 11 14 -7z m-2451 -381 c-7
-2 -19 -2 -25 0 -7 3 -2 5 12 5 14 0 19 -2 13 -5z m140 -10 c-7 -2 -21 -2 -30
0 -10 3 -4 5 12 5 17 0 24 -2 18 -5z m74 -9 c-3 -3 -12 -4 -19 -1 -8 3 -5 6 6
6 11 1 17 -2 13 -5z m86 -11 c-7 -2 -19 -2 -25 0 -7 3 -2 5 12 5 14 0 19 -2
13 -5z m-1009 -40 c13 -21 27 -49 31 -63 l7 -25 -23 22 c-27 24 -64 34 -64 16
0 -6 14 -26 30 -45 58 -65 57 -63 35 -91 -25 -32 -25 -37 0 -37 25 0 25 -1 1
-42 -35 -59 -54 -146 -48 -216 7 -90 24 -101 24 -15 -1 69 25 158 62 210 22
31 30 29 48 -14 12 -31 14 -60 9 -148 -4 -74 -2 -151 9 -235 20 -169 20 -170
-9 -170 -30 0 -68 30 -96 76 -32 51 -37 33 -6 -20 32 -55 70 -86 106 -86 27 0
28 -3 39 -75 15 -100 14 -115 -4 -115 -28 0 -93 39 -113 67 -45 65 -152 272
-167 323 -60 204 -58 506 3 627 23 45 69 93 88 93 8 0 25 -17 38 -37z m1073
-54 c215 -33 338 -67 380 -103 24 -21 26 -29 26 -98 0 -41 -4 -89 -8 -107 l-7
-33 -34 69 c-71 148 -224 237 -442 258 -176 18 -359 -56 -418 -167 -19 -37 -4
-66 75 -150 l58 -62 127 -7 c149 -9 170 -12 335 -46 l124 -25 56 22 c31 12 66
29 79 37 28 17 28 16 -4 -92 -54 -187 -117 -273 -213 -294 -66 -14 -263 -14
-389 0 -229 25 -341 64 -375 132 -33 65 -50 214 -44 392 6 169 22 248 55 279
31 28 99 36 264 31 109 -3 219 -14 355 -36z m-900 15 c-3 -3 -12 -4 -19 -1 -8
3 -5 6 6 6 11 1 17 -2 13 -5z m2036 -81 c-18 -2 -48 -2 -65 0 -18 2 -4 4 32 4
36 0 50 -2 33 -4z m-116 -9 c-3 -3 -12 -4 -19 -1 -8 3 -5 6 6 6 11 1 17 -2 13
-5z m320 0 c-3 -3 -12 -4 -19 -1 -8 3 -5 6 6 6 11 1 17 -2 13 -5z m-2139 -536
c13 -86 34 -128 89 -178 106 -98 320 -150 623 -150 285 0 406 48 475 187 16
32 56 126 89 209 34 83 68 161 77 174 31 47 169 35 198 -18 12 -23 61 -347 74
-497 3 -34 5 -36 12 -18 7 22 9 21 40 -20 78 -102 294 -181 589 -218 116 -14
280 -7 351 15 87 27 141 70 174 139 37 76 90 251 127 417 15 69 29 127 31 129
2 3 8 0 15 -7 15 -15 -6 -257 -32 -363 -10 -41 -61 -194 -113 -340 -52 -145
-116 -329 -141 -409 -26 -79 -66 -180 -88 -223 -69 -133 -258 -315 -473 -456
-111 -74 -421 -239 -527 -283 -268 -109 -565 -61 -803 130 -209 168 -418 371
-525 512 -194 257 -229 346 -255 650 -8 102 -29 315 -47 474 l-31 290 17 125
c9 70 20 158 24 196 5 55 8 18 14 -165 4 -129 11 -265 16 -302z m1779 526 c-3
-3 -12 -4 -19 -1 -8 3 -5 6 6 6 11 1 17 -2 13 -5z m481 -1 c-10 -2 -26 -2 -35
0 -10 3 -2 5 17 5 19 0 27 -2 18 -5z m-1638 -6 c0 -1 -9 -20 -20 -42 -34 -68
-21 -165 29 -212 20 -19 20 -19 -47 -16 -116 6 -128 10 -165 56 -55 67 -61 84
-42 113 22 34 87 75 143 90 43 12 102 18 102 11z m177 -21 c14 -14 -13 -61
-40 -70 -35 -13 -57 0 -70 38 -14 41 3 54 58 46 25 -4 48 -10 52 -14z m1536
17 c-7 -2 -21 -2 -30 0 -10 3 -4 5 12 5 17 0 24 -2 18 -5z m90 -10 c-7 -2 -21
-2 -30 0 -10 3 -4 5 12 5 17 0 24 -2 18 -5z m-733 -7 c0 -2 -8 -10 -17 -17
-16 -13 -17 -12 -4 4 13 16 21 21 21 13z m797 -2 c-3 -3 -12 -4 -19 -1 -8 3
-5 6 6 6 11 1 17 -2 13 -5z m76 -11 c-7 -2 -19 -2 -25 0 -7 3 -2 5 12 5 14 0
19 -2 13 -5z m-2700 -34 c-4 -13 -9 -17 -15 -11 -11 11 -3 32 12 32 4 0 6 -9
3 -21z m2810 14 c-7 -2 -19 -2 -25 0 -7 3 -2 5 12 5 14 0 19 -2 13 -5z m-376
-29 c235 -26 421 -71 464 -110 49 -44 45 -167 -11 -383 -52 -196 -103 -295
-168 -327 -101 -50 -568 10 -731 93 -69 35 -96 84 -117 208 -24 134 -16 285
21 417 l30 108 40 10 c52 12 297 4 472 -16z m420 20 c-3 -3 -12 -4 -19 -1 -8
3 -5 6 6 6 11 1 17 -2 13 -5z m-1729 -21 c72 -44 132 -124 132 -176 0 -17 -11
-28 -45 -45 -52 -25 -73 -27 -160 -11 l-62 12 42 42 c49 48 70 101 62 156 -6
45 -6 45 31 22z m1769 11 c-3 -3 -12 -4 -19 -1 -8 3 -5 6 6 6 11 1 17 -2 13
-5z m53 -14 c18 -12 2 -12 -25 0 -13 6 -15 9 -5 9 8 0 22 -4 30 -9z m498 -165
c89 -75 82 -292 -17 -565 -44 -119 -106 -212 -229 -340 l-107 -113 -57 -5 -57
-4 30 91 31 92 33 -7 c19 -3 43 -1 56 6 30 16 109 91 109 104 0 6 -17 -6 -37
-26 -21 -20 -48 -41 -60 -47 -23 -12 -66 -15 -76 -5 -3 3 10 50 29 103 48 130
81 248 89 318 7 60 45 133 69 133 19 0 34 -40 41 -116 6 -63 0 -113 -22 -172
-6 -15 -4 -15 10 -4 33 27 50 108 43 201 -16 185 -17 171 18 202 17 15 46 36
64 46 17 10 31 22 29 28 -8 22 -46 14 -97 -20 -29 -19 -55 -33 -58 -31 -2 3 5
21 17 41 11 20 21 42 21 49 0 7 9 25 21 40 27 34 68 34 107 1z m-232 -211 c-4
-9 -9 -15 -11 -12 -3 3 -3 13 1 22 4 9 9 15 11 12 3 -3 3 -13 -1 -22z m-1292
-2091 l61 -8 -3 -35 c-13 -138 -143 -243 -342 -275 -349 -56 -641 32 -725 219
-40 88 -40 90 38 100 65 9 67 10 67 38 0 15 3 28 7 28 3 0 29 -11 57 -24 134
-62 389 -87 542 -51 70 16 192 61 209 77 7 6 13 -3 19 -26 9 -34 11 -35 70
-43z"/>
<path d="M2223 3660 c-63 -13 -96 -34 -151 -96 -49 -55 -119 -170 -109 -180 3
-3 35 13 71 35 197 121 334 111 704 -54 46 -20 89 -34 96 -32 16 6 51 79 60
122 3 17 3 24 0 18 -9 -22 -23 -14 -26 14 -4 38 -62 75 -173 112 -171 56 -372
83 -472 61z"/>
<path d="M2652 2088 c-37 -41 -34 -104 10 -154 31 -35 33 -36 85 -29 29 3 61
4 72 0 11 -3 37 -33 58 -65 40 -62 68 -80 128 -80 33 0 54 13 114 69 38 36 81
40 135 15 33 -16 36 -16 70 6 66 40 86 116 44 165 l-23 26 3 -51 c4 -54 -12
-91 -47 -109 -14 -8 -31 -6 -65 10 -59 26 -97 15 -167 -47 -61 -54 -105 -60
-138 -18 -12 15 -21 32 -21 38 -1 16 -42 62 -68 76 -14 7 -50 10 -85 8 l-62
-3 -17 36 c-17 34 -16 55 7 112 10 24 -7 21 -33 -5z"/>
<path d="M2290 1713 c-56 -8 -70 -14 -70 -31 0 -24 19 -42 45 -42 16 0 27 -15
49 -66 95 -216 259 -374 461 -441 71 -24 96 -27 220 -27 112 -1 151 3 195 18
138 47 264 135 365 253 36 42 65 80 65 85 0 4 18 8 39 8 70 0 67 48 -5 76 -41
16 -47 16 -77 1 -58 -29 -303 -40 -512 -23 -292 25 -656 112 -730 175 -11 9
-31 16 -45 14z m235 -156 c274 -80 530 -113 806 -103 97 3 184 9 193 12 9 3
16 2 16 -2 0 -15 -80 -95 -89 -90 -4 3 -28 1 -52 -4 l-44 -9 50 4 c32 4 46 2
39 -5 -17 -17 -204 -32 -314 -26 -145 9 -337 34 -450 58 -135 29 -263 79 -245
96 2 3 10 0 18 -6 44 -37 415 -121 479 -109 18 3 16 5 -9 6 -67 3 -304 52
-381 79 -103 36 -127 53 -153 104 -20 38 -20 40 -2 35 10 -2 72 -21 138 -40z"/>
<path d="M3005 1359 c49 -7 350 -11 330 -4 -5 2 -93 5 -195 7 -102 3 -162 1
-135 -3z"/>
<path d="M2678 990 c31 -26 136 -58 216 -66 82 -8 177 3 170 20 -5 12 -342 61
-352 51 -3 -3 6 -5 20 -5 14 0 32 -8 39 -17 12 -15 12 -16 -6 -9 -11 5 -30 11
-42 13 -13 3 -23 12 -23 19 0 8 -10 14 -22 14 l-23 -1 23 -19z m186 -28 c2 -4
-11 -8 -29 -8 -21 0 -30 3 -22 8 16 10 44 10 51 0z m183 -18 c-3 -3 -12 -4
-19 -1 -8 3 -5 6 6 6 11 1 17 -2 13 -5z"/>
<path d="M3685 2950 c-133 -28 -244 -106 -296 -206 l-24 -46 50 -44 c80 -73
112 -83 245 -84 119 0 194 -8 342 -36 47 -9 98 -14 111 -10 38 9 167 108 173
132 3 12 -4 45 -17 73 -38 89 -139 163 -280 206 -63 19 -246 28 -304 15z m171
-83 c9 -24 -14 -66 -40 -73 -13 -3 -34 -1 -45 5 -22 12 -37 53 -26 70 9 16
105 14 111 -2z m-202 -24 c-30 -59 -12 -165 37 -214 l22 -22 -88 6 c-55 4 -97
12 -114 23 -45 28 -71 57 -71 76 0 31 91 113 151 136 74 29 81 28 63 -5z m414
-15 c56 -27 129 -96 138 -133 5 -22 0 -34 -32 -67 -61 -63 -84 -69 -184 -51
-66 13 -80 18 -62 24 27 10 78 88 86 133 4 19 2 52 -3 75 -10 48 -7 49 57 19z"/>
</g>
</svg>
