<?xml version="1.0" standalone="no"?>
<!DOCTYPE svg PUBLIC "-//W3C//DTD SVG 20010904//EN"
        "http://www.w3.org/TR/2001/REC-SVG-20010904/DTD/svg10.dtd">
<svg version="1.0" xmlns="http://www.w3.org/2000/svg"
     width="398.000000pt" height="398.000000pt" viewBox="0 0 398.000000 398.000000"
     preserveAspectRatio="xMidYMid meet">
    <metadata>
        Created by potrace 1.14, written by Peter Selinger 2001-2017
    </metadata>
    <g transform="translate(0.000000,398.000000) scale(0.100000,-0.100000)"
       fill="#000000" stroke="none">
        <path d="M1915 3041 c-27 -10 -74 -30 -103 -44 -61 -28 -89 -25 -104 12 -9 25
-10 25 -24 7 -8 -11 -14 -27 -14 -36 0 -14 -14 -18 -67 -23 -80 -7 -103 -14
-103 -33 0 -8 -8 -14 -18 -14 -22 0 -46 -28 -63 -74 -8 -23 -19 -36 -31 -36
-33 0 -148 -58 -148 -74 0 -9 -4 -16 -10 -16 -18 0 -49 -87 -59 -168 -15 -116
-36 -152 -92 -152 -28 0 -23 -25 9 -52 l28 -23 -38 -27 c-73 -53 -91 -138 -49
-233 20 -48 21 -53 6 -94 -27 -78 -19 -123 31 -184 20 -24 22 -32 12 -55 -16
-40 -13 -208 6 -280 8 -34 35 -97 59 -140 41 -73 73 -102 138 -124 5 -2 13
-46 19 -98 7 -66 19 -113 39 -155 43 -93 142 -216 254 -316 140 -126 137 -122
111 -115 -11 3 -37 -2 -60 -13 -36 -17 -355 -71 -423 -71 -16 0 -42 -5 -57
-10 -27 -11 -27 -11 -7 -25 27 -19 252 -108 338 -133 144 -42 235 -54 450 -59
182 -4 226 -2 333 16 145 25 256 57 406 118 114 47 146 63 146 75 0 8 5 7
-255 43 -112 15 -212 34 -243 47 l-53 21 59 32 c142 75 293 207 335 292 13 26
34 78 46 116 22 66 23 67 57 67 52 0 87 23 153 100 103 119 141 223 146 390 3
121 11 147 59 190 70 64 83 138 42 241 l-25 60 25 46 c40 76 25 191 -33 255
-14 16 -14 18 -1 18 15 0 48 30 48 43 0 4 -13 7 -28 7 -42 0 -58 25 -86 126
-13 50 -29 102 -36 115 -22 44 -74 89 -111 99 -36 10 -37 12 -32 44 5 33 -10
76 -26 76 -5 0 -6 -12 -4 -27 4 -23 0 -20 -26 20 -100 155 -281 215 -521 176
l-69 -12 -73 38 c-92 48 -183 57 -263 26z m435 -839 c0 -55 43 -134 91 -168
33 -23 53 -28 106 -30 52 -2 70 -7 90 -26 40 -36 55 -80 41 -118 -11 -32 -11
-32 -27 -12 -32 40 -81 56 -188 60 -120 5 -162 -1 -193 -28 -18 -15 -20 -25
-15 -51 l7 -31 52 6 c118 15 225 18 259 7 19 -7 56 -31 82 -53 l47 -42 -6 31
c-7 29 -6 31 29 35 l36 4 -7 -45 c-4 -26 -8 -47 -9 -49 -1 -1 -24 2 -51 8 -95
22 -260 40 -367 40 -115 0 -160 -13 -201 -59 -31 -34 -60 -26 -106 28 -30 37
-55 55 -95 70 -72 27 -307 61 -424 61 l-94 0 7 52 c4 28 9 55 12 59 2 5 43 20
90 34 60 18 96 36 123 60 36 32 41 34 70 24 45 -16 115 -4 168 27 25 14 46 24
47 22 2 -1 9 -13 15 -25 16 -31 82 -63 130 -63 31 0 49 7 73 29 37 33 34 48
-6 30 -23 -11 -30 -10 -47 8 -25 24 -19 56 14 78 12 8 56 19 97 26 41 6 86 17
100 25 41 22 50 17 50 -24z m-1146 -434 c19 -26 21 -47 4 -30 -7 7 -19 12 -27
12 -10 0 -7 -9 12 -28 22 -23 25 -31 14 -41 -9 -11 -9 -14 0 -18 10 -4 10 -10
-1 -31 -21 -42 -28 -82 -20 -116 7 -29 8 -28 15 22 8 60 37 114 49 91 4 -8 10
-74 12 -146 4 -121 3 -133 -12 -133 -10 0 -25 10 -34 23 -9 12 -14 15 -10 7
13 -29 37 -50 56 -50 15 0 18 -8 18 -45 0 -33 -4 -45 -15 -45 -25 0 -51 34
-96 125 -41 83 -44 93 -47 191 -5 120 0 156 28 202 23 38 33 40 54 10z m587
-32 c42 -8 92 -21 112 -30 36 -14 37 -17 37 -65 0 -58 -12 -65 -30 -20 -25 60
-140 119 -232 119 -66 0 -128 -21 -164 -55 -19 -18 -34 -38 -34 -44 0 -7 17
-30 38 -52 36 -39 39 -40 129 -49 51 -4 116 -14 145 -20 45 -10 59 -10 92 4
l39 16 -7 -32 c-3 -17 -17 -56 -31 -85 -35 -76 -65 -87 -215 -80 -118 6 -208
26 -234 52 -23 24 -39 121 -34 220 5 119 19 143 85 147 66 4 213 -8 304 -26z
m-151 -55 c-15 -29 -12 -73 7 -100 l16 -24 -49 7 c-48 7 -94 42 -94 73 0 22
66 61 108 62 19 1 21 -2 12 -18z m95 -6 c0 -31 -49 -28 -53 3 -3 20 0 23 25
20 20 -2 28 -8 28 -23z m-390 -265 c21 -69 105 -112 257 -131 144 -17 264 5
310 57 9 10 35 66 59 123 48 115 66 133 115 110 27 -13 30 -21 46 -114 9 -55
17 -118 18 -140 1 -22 4 -34 7 -27 3 9 17 2 43 -22 91 -82 387 -124 482 -69
44 25 70 80 104 218 15 63 31 110 34 105 15 -24 -13 -180 -51 -290 -23 -63
-61 -173 -85 -245 -52 -154 -84 -200 -202 -295 -83 -68 -267 -175 -364 -212
-44 -17 -69 -19 -148 -16 -140 7 -190 35 -375 210 -151 143 -229 266 -244 389
-30 238 -43 438 -35 534 l8 100 7 -130 c3 -71 9 -141 14 -155z m1120 250 c134
-15 234 -39 257 -62 18 -18 19 -28 14 -78 -8 -73 -37 -173 -65 -228 -26 -51
-45 -57 -160 -49 -119 8 -225 33 -260 63 -32 27 -51 90 -51 171 l0 47 30 -29
c28 -27 40 -30 148 -41 64 -7 137 -15 162 -19 42 -7 48 -5 88 31 l43 39 -19
35 c-46 85 -197 132 -317 99 -25 -7 -58 -29 -87 -59 -27 -26 -48 -45 -48 -43
0 28 37 123 49 126 30 8 126 7 216 -3z m-596 -35 c17 -20 31 -42 31 -50 0 -22
-50 -43 -88 -38 -30 5 -56 23 -33 23 14 0 41 53 41 80 0 29 14 25 49 -15z
m579 -32 c-2 -12 -12 -18 -28 -18 -16 0 -26 6 -28 18 -3 13 3 17 28 17 25 0
31 -4 28 -17z m-106 -28 c-3 -22 2 -45 12 -60 l16 -25 -40 0 c-42 0 -90 24
-90 44 0 14 48 61 70 69 31 11 36 7 32 -28z m228 10 c16 -9 36 -28 45 -44 14
-29 14 -30 -17 -56 -24 -21 -38 -25 -61 -21 -16 3 -36 6 -45 6 -12 0 -10 6 8
25 17 18 24 38 25 65 0 45 4 46 45 25z m417 0 c49 -34 50 -134 2 -272 -24 -71
-50 -111 -120 -185 -40 -42 -62 -58 -81 -58 l-27 0 16 45 c12 36 20 45 38 45
12 0 33 9 46 21 l24 21 -27 -16 c-25 -15 -58 -22 -58 -12 0 2 11 32 24 67 13
36 30 92 36 127 15 74 35 97 50 57 13 -34 13 -66 0 -101 -9 -23 -9 -25 4 -15
20 17 29 82 18 123 -12 42 0 75 33 90 14 6 25 15 25 20 0 15 -27 8 -54 -13
-30 -24 -31 -23 -12 22 23 54 29 58 63 34z m-1017 -1163 c83 -3 104 -1 163 21
63 23 67 24 67 6 0 -14 7 -19 30 -19 47 0 41 -41 -13 -95 -52 -53 -93 -65
-222 -65 -151 0 -218 27 -262 105 -29 52 -29 55 8 55 22 0 32 5 36 19 5 19 6
19 51 -2 33 -14 75 -22 142 -25z"/>
        <path d="M1586 1980 c-29 -24 -86 -97 -86 -111 0 -4 25 5 56 22 85 44 182 36
306 -27 64 -33 84 -31 97 8 6 17 9 34 6 36 -3 3 -5 1 -5 -4 0 -5 -6 2 -13 16
-19 38 -120 71 -237 77 -88 5 -97 3 -124 -17z"/>
        <path d="M1846 1214 c-38 -37 -5 -94 54 -94 29 0 42 -5 50 -19 30 -57 81 -68
121 -25 20 22 30 25 64 20 44 -7 57 -1 74 32 8 16 9 28 1 42 -14 26 -23 26
-15 0 3 -10 1 -29 -5 -40 -10 -18 -17 -20 -58 -14 -42 5 -50 3 -71 -20 -33
-35 -49 -33 -93 15 -33 36 -41 40 -68 34 -25 -6 -31 -3 -41 18 -8 18 -8 30 0
46 14 25 9 27 -13 5z"/>
        <path d="M1643 1023 c-18 -7 -16 -33 1 -33 8 0 30 -28 47 -61 42 -79 104 -140
177 -176 50 -25 68 -28 152 -28 85 0 101 3 148 28 29 15 79 55 112 87 32 33
65 60 74 60 20 0 21 24 1 40 -12 10 -24 10 -54 1 -55 -16 -252 -14 -362 5
-103 18 -245 59 -254 74 -7 11 -22 12 -42 3z m197 -90 c79 -21 125 -26 274
-30 l178 -6 -26 -26 c-24 -24 -34 -26 -124 -29 -94 -3 -254 15 -336 39 -22 6
-52 24 -68 39 -32 32 -37 56 -10 45 9 -4 60 -18 112 -32z"/>
        <path d="M1890 654 c43 -20 127 -29 159 -16 20 7 10 10 -54 16 -43 4 -92 9
-109 12 l-31 4 35 -16z"/>
    </g>
</svg>
